<?xml version="1.0" encoding="UTF-8" standalone="no"?>
<!DOCTYPE svg PUBLIC "-//W3C//DTD SVG 1.1//EN" "http://www.w3.org/Graphics/SVG/1.1/DTD/svg11.dtd">
<svg version="1.1" xmlns="http://www.w3.org/2000/svg" xmlns:xlink="http://www.w3.org/1999/xlink" preserveAspectRatio="xMidYMid meet" viewBox="0 0 640 640" width="640" height="640">
    <defs>
        <path d="M233.66 331.32L191.97 200L184 214.93L59.38 448.38L51.76 462.64" id="c2ubUHmUD"></path>
        <path
            d="M570 324.05C551.36 335.55 539.7 342.74 535.04 345.62C463.1 390 399.51 446.67 347.17 513.05C345.39 515.31 340.93 520.96 333.8 530C331.16 527.13 329.51 525.34 328.85 524.62C306.04 499.83 287.6 471.35 274.32 440.39C271.99 434.97 266.19 421.44 256.89 399.78"
            id="bYntlhy5i"
        ></path>
        <path
            d="M378.96 342.66C404.76 319.06 417.79 284.59 414.06 249.83C413.84 247.86 415.14 259.94 413.93 248.65C413.32 242.97 413.96 237.22 415.81 231.82C420.98 216.72 423.92 208.41 424.64 206.88C432.6 190.02 441.21 181.75 452.46 166.84C453.15 165.93 454.88 163.65 457.64 160L436.38 154.18C433.29 149.8 431.35 147.06 430.58 145.97C412.86 120.85 375.9 120.02 357.08 144.32C356.03 145.67 362.26 137.64 354.09 148.18C352.59 150.11 351.31 152.19 350.26 154.39C336.49 183.14 302.06 255.01 246.97 370C295.89 365.67 326.46 362.97 338.69 361.89C352.51 360.66 365.55 354.93 375.79 345.56C384.63 337.47 375.16 346.13 378.96 342.66Z"
            id="a46dNpW09O"
        ></path>
        <path
            d="M137.18 420.98C155.2 417.22 166.47 414.87 170.97 413.93C170.97 413.93 334.01 391.04 334.01 391.04C337.08 390.81 317.65 392.24 334.12 391.03C344.25 390.28 354.27 388.4 363.98 385.43C378 381.14 362.33 385.94 365.57 384.95C407.51 372.12 438.48 336.53 445.39 293.23C447.03 282.96 448.27 275.19 451.82 253C451.82 253 454.74 230.73 454.74 230.73C455.39 224.48 455.37 224.64 455.82 220.33C457.23 206.71 462.54 193.8 471.12 183.14C471.67 182.45 473.06 180.72 475.28 177.96L507.43 140.1L469.03 134.46C467.38 131.33 466.34 129.37 465.92 128.58C459.75 116.92 449.86 107.65 437.82 102.24C426.62 97.21 439.32 102.92 435.05 101C403.53 86.85 366.45 95.31 344.2 121.74C339.71 127.07 345.16 120.6 336 131.48C326.56 142.69 318.59 155.05 312.27 168.27C285.64 223.94 219.07 363.11 112.57 585.79"
            id="b3RkNrWKik"
        ></path>
    </defs>
    <g>
        <g>
            <g>
                <g><use xlink:href="#c2ubUHmUD" opacity="1" fill-opacity="0" stroke="#0c0c0c" stroke-width="55" stroke-opacity="1"></use></g>
            </g>
            <g>
                <g><use xlink:href="#bYntlhy5i" opacity="1" fill-opacity="0" stroke="#0c0c0c" stroke-width="55" stroke-opacity="1"></use></g>
            </g>
            <g>
                <g><use xlink:href="#a46dNpW09O" opacity="1" fill-opacity="0" stroke="#eaab66" stroke-width="40" stroke-opacity="1"></use></g>
            </g>
            <g>
                <g><use xlink:href="#b3RkNrWKik" opacity="1" fill-opacity="0" stroke="#e67e0e" stroke-width="40" stroke-opacity="1"></use></g>
            </g>
        </g>
    </g>
</svg>
